<svg xmlns="http://www.w3.org/2000/svg" width="121" height="40" viewBox="0 0 121 40" fill="none">
  <path fill-rule="evenodd" clip-rule="evenodd" d="M52.659 0.123789C52.3887 0.186367 52.0959 0.294666 52.0081 0.364595C51.9204 0.434524 51.8094 0.409601 51.7613 0.309369C51.6495 0.0762725 51.1341 0.0707135 51.1341 0.302735C51.1341 0.409242 50.9972 0.397588 50.7853 0.27315C50.5123 0.112672 50.3563 0.12325 50.0673 0.321921C49.7897 0.512522 49.6842 0.522026 49.6421 0.360651C49.5994 0.196766 49.5033 0.194256 49.2377 0.350431C48.9998 0.49011 48.8595 0.496205 48.7949 0.369257C48.7431 0.267053 48.4378 0.171484 48.1166 0.15696C47.6575 0.136161 47.4865 0.215235 47.317 0.527405C47.1986 0.74562 47.1015 0.839934 47.1015 0.737192C47.1015 0.530991 45.4926 0.416952 45.2553 0.606119C45.1747 0.670311 44.7057 0.703841 44.2129 0.68089C43.4522 0.645387 43.2673 0.699179 42.9884 1.03699C42.7332 1.34611 42.6169 1.38915 42.4679 1.22956C42.1916 0.933711 41.0858 1.02587 40.8937 1.36082C40.7648 1.58584 40.6956 1.59553 40.5248 1.41299C40.3749 1.25234 40.2998 1.2457 40.2627 1.38968C40.2296 1.51735 39.7788 1.59248 39.0323 1.59481C38.3845 1.59678 37.5101 1.72516 37.0894 1.88026C36.6688 2.03536 36.1181 2.14151 35.8657 2.11641C35.6134 2.09113 35.3288 2.15406 35.2336 2.25591C35.1383 2.35793 34.9381 2.44418 34.7886 2.44759C34.2204 2.46068 33.3947 2.6961 33.1269 2.92131C32.9736 3.05023 32.5917 3.15082 32.2782 3.14472C31.9646 3.13881 31.5892 3.21591 31.4439 3.31614C31.2984 3.41655 30.8824 3.55605 30.519 3.62634C30.1557 3.69663 29.8585 3.82555 29.8585 3.91305C29.8585 4.00037 29.7473 4.07191 29.6114 4.07191C29.4754 4.07191 29.2301 4.19294 29.0664 4.34087C28.9026 4.4888 28.6701 4.56106 28.5497 4.50135C28.4293 4.44182 28.0823 4.55998 27.7788 4.76403C27.4339 4.99587 27.194 5.06688 27.1397 4.95338C27.0867 4.84293 26.9893 4.83521 26.8912 4.93401C26.8023 5.02331 26.2073 5.35036 25.5687 5.66092C24.9302 5.97129 24.2536 6.3819 24.065 6.57304C23.8766 6.76436 23.6324 6.87625 23.5225 6.82192C23.3858 6.75432 23.3228 6.84917 23.3228 7.12279C23.3228 7.42187 23.279 7.47602 23.149 7.33742C23.028 7.2085 22.8064 7.22822 22.419 7.40251C22.1131 7.54003 21.847 7.65389 21.828 7.65533C21.8089 7.65676 21.7923 7.83965 21.7911 8.06145C21.7896 8.35283 21.7561 8.39801 21.6707 8.22426C21.572 8.02344 21.5032 8.02326 21.2556 8.22247C21.0924 8.3539 20.9589 8.51241 20.9589 8.57481C20.9589 8.63702 20.693 8.74138 20.3679 8.80665C19.508 8.97914 18.5949 9.46201 18.5949 9.74441C18.5949 9.87889 18.5043 9.98899 18.3936 9.98899C18.2827 9.98899 18.0245 10.1893 17.8198 10.4338C17.615 10.6786 17.3945 10.8366 17.3297 10.7849C17.2649 10.7333 17.1023 10.8557 16.9685 11.0571C16.8349 11.2586 16.5829 11.4234 16.4087 11.4234C16.2175 11.4234 16.0919 11.5319 16.0919 11.6969C16.0919 11.8471 15.9355 12.0469 15.7443 12.1407C15.5531 12.2344 15.3957 12.4543 15.3945 12.6293C15.3929 12.8649 15.3627 12.8871 15.278 12.715C15.1868 12.5297 15.0747 12.5479 14.7248 12.8046C14.4834 12.982 14.2856 13.2278 14.285 13.351C14.2846 13.4743 14.159 13.5751 14.0061 13.5751C13.8531 13.5751 13.728 13.6396 13.728 13.7187C13.728 13.7976 13.4464 14.0386 13.1022 14.2543C12.758 14.4698 12.4764 14.728 12.4764 14.8279C12.4764 14.9278 12.3826 15.0095 12.2679 15.0095C12.152 15.0095 12.0593 15.1689 12.0593 15.3681C12.0593 15.5674 11.9665 15.7268 11.8507 15.7268C11.736 15.7268 11.6421 15.8074 11.6421 15.9061C11.6421 16.0047 11.564 16.0855 11.4683 16.0857C11.2087 16.0864 10.2792 17.1587 10.5297 17.1687C10.6444 17.1732 10.5192 17.2786 10.2515 17.4029C9.98385 17.527 9.58365 17.8463 9.36213 18.1122C9.14062 18.3781 8.90603 18.5956 8.84067 18.5956C8.77532 18.5956 8.72192 18.7145 8.72192 18.8599C8.72192 19.0054 8.54754 19.2406 8.33423 19.3828C8.12105 19.525 7.70208 20.0113 7.40324 20.4633C7.10441 20.9153 6.79223 21.2852 6.70949 21.2852C6.5201 21.2852 5.80201 22.3272 5.8009 22.6037C5.80034 22.7168 5.61484 22.945 5.38873 23.1111C5.16249 23.2769 4.93708 23.62 4.88771 23.8731C4.83849 24.1263 4.73016 24.3334 4.64701 24.3334C4.40282 24.3334 3.71588 25.2699 3.71588 25.6029C3.71588 25.7711 3.62202 25.9552 3.5073 26.0121C3.39258 26.0687 3.29871 26.2495 3.29871 26.4135C3.29871 26.5778 3.18928 26.8433 3.05537 27.0038C2.72302 27.4024 2.46438 28.0257 2.46438 28.4275C2.46438 28.6111 2.34312 28.9414 2.19488 29.1617C2.04679 29.3821 1.95724 29.6688 1.99589 29.7988C2.03872 29.9426 1.97309 30.0249 1.82833 30.0084C1.46317 29.9672 1.44454 30.3443 1.79996 30.5851C1.9742 30.7031 2.01648 30.7637 1.89383 30.7201C1.70179 30.6516 1.21287 31.1553 1.21287 31.4215C1.21287 31.4717 1.0485 31.8486 0.847566 32.2589C0.544701 32.8775 0.510354 33.0634 0.646908 33.3453C0.765106 33.5891 0.769416 33.7511 0.662204 33.9176C0.502011 34.1663 0.605191 34.7331 0.810577 34.7331C0.878854 34.7331 0.934754 34.8063 0.934754 34.8956C0.934754 34.985 0.809604 35.0159 0.656642 34.9644C0.470167 34.9015 0.378529 34.9589 0.378529 35.1385C0.378529 35.2859 0.2855 35.5059 0.171891 35.6275C-0.00888275 35.821 -0.000261262 35.9049 0.241419 36.3011C0.542754 36.7949 0.609918 37.4227 0.361563 37.4227C0.249067 37.4227 0.247398 37.488 0.355723 37.6562C0.438323 37.7845 0.470584 38.0641 0.427337 38.2773C0.322767 38.7929 0.700305 39.279 1.08341 39.1222C1.25709 39.0511 1.34205 38.9034 1.29686 38.7514C1.255 38.6106 1.30492 38.4985 1.40963 38.4985C1.61293 38.4985 1.75992 38.9879 1.66536 39.3502C1.63323 39.4736 1.51824 39.5744 1.40991 39.5744C1.15919 39.5744 1.15293 39.865 1.40101 39.9877C1.50447 40.0389 1.69219 39.9256 1.81818 39.7359C2.06806 39.3596 2.12452 38.8571 1.91677 38.8571C1.75922 38.8571 1.77827 38.0926 1.93944 37.9475C2.00229 37.8909 2.08239 37.6529 2.11729 37.4186C2.15233 37.1842 2.27609 36.9239 2.39221 36.8401C2.50832 36.7562 2.60343 36.4649 2.60343 36.1927C2.60343 35.8783 2.76474 35.4849 3.04521 35.115C3.36046 34.6992 3.49006 34.3555 3.49715 33.916C3.5048 33.4538 3.56807 33.2996 3.75065 33.2992C3.97244 33.2987 4.0499 33.1231 3.95923 32.8262C3.94004 32.7635 4.05755 32.6487 4.2201 32.5712C4.44649 32.4631 4.49975 32.3218 4.44732 31.9679C4.39643 31.6252 4.43689 31.5056 4.60348 31.5056C4.72724 31.5056 4.82834 31.4249 4.82834 31.3263C4.82834 31.2277 4.9222 31.147 5.03692 31.147C5.15164 31.147 5.24551 31.0606 5.24551 30.955C5.24551 30.8492 5.3434 30.6365 5.46299 30.4823C5.61679 30.284 5.63723 30.146 5.53252 30.0109C5.30905 29.7228 5.3548 29.511 5.62791 29.5702C5.76961 29.6009 5.87126 29.5107 5.87126 29.354C5.87126 29.206 5.99641 29.0375 6.14937 28.9794C6.30233 28.9215 6.41191 28.7802 6.39272 28.6656C6.37367 28.5512 6.44097 28.4574 6.54235 28.4574C6.64372 28.4574 6.86829 28.2631 7.04142 28.0255C7.33497 27.6224 7.339 27.5876 7.10038 27.5084C6.92281 27.4492 6.95799 27.4169 7.21538 27.4024C7.475 27.3879 7.72502 27.1541 8.04972 26.6228C8.7457 25.4835 8.98598 25.212 9.24838 25.2683C9.40524 25.302 9.50189 25.1817 9.53123 24.9162C9.55793 24.6728 9.67237 24.5127 9.81963 24.5127C9.95994 24.5127 10.1801 24.2273 10.3382 23.8403C10.4892 23.4706 10.6723 23.157 10.745 23.1437C11.2145 23.0582 11.5443 22.7878 11.6752 22.3813C11.7582 22.1237 11.8159 21.8522 11.8035 21.7783C11.7913 21.7044 11.8593 21.6315 11.955 21.6166C12.0505 21.6015 12.1914 21.5705 12.2679 21.5475C12.3443 21.5246 12.5237 21.4966 12.6665 21.4851C12.8548 21.4703 12.9061 21.3661 12.8533 21.1059C12.7954 20.8206 12.8491 20.7473 13.1153 20.7473C13.2992 20.7473 13.4498 20.6557 13.4498 20.5438C13.4498 20.2802 14.0508 19.5642 14.553 19.2295C14.7689 19.0853 14.9827 18.8434 15.0277 18.6919C15.0729 18.5404 15.2332 18.4163 15.3841 18.4163C15.5349 18.4163 15.6881 18.3543 15.7244 18.2786C15.7607 18.2028 15.5297 18.1626 15.2111 18.1893C14.6937 18.2325 14.6655 18.2155 14.9471 18.0294C15.1643 17.8858 15.237 17.7185 15.181 17.4911C15.0817 17.0875 15.2252 17.0678 15.5449 17.4409C15.764 17.6966 15.8155 17.6806 16.1468 17.2534C16.3461 16.9964 16.5091 16.8707 16.5091 16.9738C16.5091 17.2188 16.8886 17.2173 16.952 16.9722C16.9788 16.8682 17.1248 16.7592 17.2764 16.7301C17.4487 16.697 17.552 16.5387 17.552 16.3077C17.552 15.7944 17.7153 15.6344 17.9658 15.9025C18.1068 16.0533 18.1778 16.063 18.1778 15.9313C18.1778 15.8227 18.3342 15.683 18.5254 15.6211C18.7166 15.5593 18.873 15.3963 18.873 15.2591C18.873 15.1001 19.0279 15.0095 19.2999 15.0095C19.7142 15.0095 20.7072 14.2717 21.087 13.6818C21.1868 13.5267 21.32 13.4408 21.3829 13.4908C21.4457 13.541 21.7202 13.4204 21.9928 13.2229C22.2655 13.0255 22.4885 12.905 22.4885 12.9552C22.4885 13.141 23.3988 12.4342 23.5756 12.1109C23.6766 11.9267 23.8201 11.8247 23.8946 11.8841C23.9693 11.9436 24.1057 11.9137 24.1981 11.8177C24.2903 11.7218 24.6474 11.5866 24.9915 11.5174C25.3357 11.448 25.8506 11.1968 26.1358 10.9592C26.4209 10.7214 26.7827 10.5269 26.9398 10.5269C27.0968 10.5269 27.458 10.3935 27.7423 10.2303C28.0267 10.0672 28.3148 9.94972 28.3827 9.96944C28.4506 9.98917 28.6458 9.83604 28.8165 9.6293C29.0413 9.35712 29.2259 9.28521 29.4851 9.36913C29.7146 9.44336 29.9572 9.38222 30.16 9.19915C30.3341 9.0419 30.7462 8.91315 31.0758 8.91315C31.4656 8.91315 31.7014 8.82404 31.7509 8.658C31.7926 8.51779 31.919 8.35731 32.0318 8.30154C32.1458 8.24506 32.1997 8.27788 32.1529 8.37524C32.1054 8.47457 32.1624 8.50416 32.2848 8.44373C32.4035 8.38492 32.5056 8.20436 32.5116 8.04227C32.5175 7.88018 32.5494 7.83051 32.5822 7.93164C32.6531 8.14985 33.7521 8.0489 33.7521 7.82405C33.7521 7.73888 33.8507 7.71808 33.9714 7.77779C34.1559 7.86906 34.6669 7.71181 35.977 7.16045C36.2637 7.03977 36.7265 6.96554 37.7686 6.87302C38.257 6.82981 38.695 6.71631 38.742 6.62092C38.8233 6.45613 39.1733 6.40808 40.7744 6.34192C41.1568 6.32614 41.5117 6.2381 41.563 6.14629C41.6143 6.05449 41.9272 5.95802 42.2583 5.93202C42.5894 5.90585 42.8975 5.88021 42.9429 5.87483C42.9884 5.86945 43.2015 5.67006 43.4165 5.43176C43.7438 5.06903 43.8379 5.03783 43.9944 5.23973C44.0972 5.37223 44.1813 5.56248 44.1813 5.66235C44.1813 5.91858 46.1292 5.69355 46.4625 5.39895C46.6553 5.22843 46.801 5.2157 46.9986 5.35197C47.1543 5.45956 47.4856 5.48448 47.7766 5.41061C48.0554 5.33996 49.8166 5.25676 51.6904 5.22592C53.5642 5.1949 55.2387 5.16388 55.4115 5.15689C55.5845 5.14972 55.8661 4.96324 56.0373 4.74251L56.3488 4.34087L56.3953 4.76529C56.4369 5.14416 56.4948 5.17859 56.9341 5.08678C57.2047 5.03012 57.5435 4.84687 57.687 4.6794C57.934 4.39125 57.9479 4.3943 57.9479 4.73785C57.9479 5.03299 58.0455 5.10597 58.4694 5.1282C59.6938 5.19239 60.3653 5.13465 60.5374 4.95033C60.6738 4.8042 60.7765 4.82464 60.9354 5.02958C61.201 5.37206 63.7934 5.41885 63.96 5.08409C64.0254 4.95266 64.0629 4.99157 64.0643 5.19257C64.0665 5.52895 64.4666 5.59457 64.9701 5.34121C65.1502 5.25067 65.2972 5.28617 65.3873 5.4418C65.4639 5.57395 65.9019 5.72798 66.3608 5.7841C66.8197 5.84022 67.3823 5.91499 67.6112 5.95031C67.8401 5.98564 68.0657 5.93454 68.1125 5.83681C68.1655 5.72636 68.271 5.74895 68.3917 5.89652C68.6188 6.17445 69.6287 6.30247 69.6287 6.05324C69.6287 5.95982 69.8588 6.00733 70.1402 6.15885C70.4216 6.31036 70.8832 6.40593 71.1662 6.37114C71.5382 6.32542 71.6619 6.37079 71.6131 6.53467C71.5532 6.73621 71.8344 6.85634 72.1801 6.77691C72.245 6.76203 72.683 6.88378 73.1535 7.04748C73.624 7.21119 74.3218 7.36629 74.7042 7.39211C75.0866 7.41793 75.5246 7.49216 75.6776 7.55743C75.898 7.6512 76.0115 7.54201 76.2245 7.03063C76.4416 6.50993 76.5168 6.43946 76.6144 6.66467C76.681 6.81815 76.6972 7.02364 76.6503 7.12154C76.6034 7.21944 76.639 7.29941 76.7293 7.29941C76.8532 7.29941 76.8544 7.36037 76.7346 7.54649C76.6089 7.74175 76.6417 7.81634 76.8914 7.90259C77.3819 8.07203 77.4408 8.04209 77.3492 7.66985C77.277 7.37669 77.3296 7.32541 77.6874 7.3385C78.0359 7.35123 78.1111 7.42869 78.1111 7.77492C78.1111 8.39568 78.5927 8.94417 79.0171 8.80683C79.2099 8.74443 79.6001 8.81741 79.8998 8.97215C80.2996 9.17835 80.4771 9.19735 80.5942 9.04638C80.7113 8.8954 80.8245 8.94435 81.0364 9.2377C81.2531 9.5375 81.4362 9.61352 81.8011 9.55507C82.0785 9.51078 82.3252 9.56708 82.3861 9.68883C82.444 9.80466 82.7104 10.001 82.9781 10.1254C83.3886 10.316 83.4884 10.3099 83.6156 10.0867C83.7305 9.88535 83.8052 9.87208 83.9285 10.0311C84.0177 10.1461 84.0905 10.3359 84.0905 10.4534C84.0905 10.7593 85.2394 11.4129 86.0084 11.5443C86.3684 11.6058 86.7866 11.7652 86.9374 11.8984C87.0882 12.0316 87.3031 12.1407 87.4149 12.1407C87.5267 12.1407 87.9039 12.3214 88.253 12.5423C88.6562 12.7974 89.1466 12.9447 89.5963 12.9457C90.1386 12.9472 90.3016 13.0106 90.2916 13.2165C90.2835 13.3822 90.4255 13.5073 90.6609 13.5421C90.8713 13.5733 91.0434 13.6655 91.0434 13.7469C91.0434 13.9493 92.0854 14.4716 92.4893 14.4716C92.6695 14.4716 92.8949 14.5927 92.9901 14.7406C93.1788 15.0339 93.6854 15.1101 93.6854 14.8451C93.6854 14.7547 93.6073 14.6402 93.5116 14.5903C93.4047 14.5347 93.4284 14.4944 93.5732 14.4858C93.7028 14.4781 93.9204 14.7153 94.0568 15.0131C94.1933 15.3109 94.3845 15.5152 94.4818 15.4669C94.5791 15.4189 94.6588 15.4496 94.6588 15.5353C94.6588 15.6211 94.8892 15.6828 95.1708 15.6726C95.4581 15.662 95.7074 15.7486 95.7387 15.8697C95.7693 15.9882 95.8754 16.0854 95.9744 16.0854C96.0734 16.0854 96.2322 16.2064 96.3275 16.3543C96.4227 16.5023 96.6181 16.6233 96.7616 16.6233C96.9053 16.6233 97.154 16.7925 97.3145 16.9995C97.5025 17.2419 97.7232 17.3468 97.9354 17.2944C98.1165 17.2498 98.2933 17.3025 98.3284 17.4113C98.3711 17.544 98.436 17.5288 98.525 17.3651C98.6371 17.1587 98.6713 17.1587 98.7442 17.3651C98.8105 17.5528 98.8491 17.558 98.9112 17.3869C98.9732 17.2159 99.0385 17.2247 99.1933 17.4241C99.3041 17.567 99.5024 17.6394 99.6341 17.5849C99.8175 17.5091 99.8294 17.5266 99.6847 17.6598C99.5259 17.8062 99.5259 17.8583 99.6847 17.9905C99.7885 18.0767 99.9673 18.1556 100.082 18.1657C100.197 18.1757 100.4 18.196 100.534 18.2105C100.668 18.225 100.777 18.3581 100.777 18.506C100.777 18.6932 100.923 18.7749 101.257 18.7749C101.548 18.7749 101.785 18.8856 101.858 19.0552C101.925 19.2092 102.079 19.3541 102.199 19.3769C102.319 19.3996 102.515 19.5223 102.634 19.6492C102.753 19.7764 102.969 19.8316 103.115 19.7719C103.272 19.7079 103.452 19.7753 103.556 19.9363C103.652 20.0866 103.833 20.2099 103.958 20.2106C104.082 20.2112 104.372 20.372 104.601 20.568C104.831 20.764 105.128 20.9248 105.262 20.9254C105.396 20.9261 105.505 20.9901 105.505 21.0675C105.505 21.2081 105.83 21.2809 106.467 21.2831C106.652 21.2838 106.914 21.4134 107.049 21.5712C107.185 21.7292 107.351 21.8144 107.418 21.7607C107.485 21.7069 107.628 21.8201 107.736 22.0121C107.843 22.204 108.003 22.3611 108.091 22.3611C108.18 22.3611 108.33 22.4821 108.425 22.63C108.649 22.9768 108.982 22.9768 108.982 22.63C108.982 22.4821 108.919 22.3611 108.843 22.3611C108.766 22.3611 108.704 22.2879 108.704 22.1986C108.704 22.1093 108.855 22.1285 109.041 22.2413C109.29 22.3933 109.34 22.5052 109.232 22.6727C109.152 22.7971 109.141 22.9072 109.208 22.9174C109.275 22.9277 109.567 22.9617 109.858 22.9931C110.432 23.0548 110.789 23.3372 110.789 23.7277C110.789 23.8636 110.854 23.9748 110.933 23.9748C111.013 23.9748 111.241 24.113 111.441 24.2819C111.641 24.451 111.898 24.607 112.013 24.6287C112.128 24.6504 112.269 24.7661 112.326 24.8855C112.383 25.0051 112.531 25.053 112.654 24.9922C112.793 24.9231 112.942 25.0148 113.049 25.235C113.143 25.4295 113.324 25.5885 113.45 25.5885C113.579 25.5885 113.718 25.7851 113.767 26.0368C113.815 26.2834 113.951 26.4851 114.07 26.4851C114.262 26.4851 114.262 26.515 114.077 26.754C113.962 26.902 113.801 27.023 113.719 27.023C113.638 27.023 113.57 27.1058 113.57 27.207C113.57 27.3115 113.39 27.2704 113.152 27.1117C112.851 26.9113 112.661 26.883 112.475 27.0112C112.333 27.1094 112.174 27.1343 112.121 27.0667C112.069 26.9991 111.97 27.0601 111.902 27.2025C111.794 27.427 111.767 27.4262 111.699 27.1973C111.634 26.976 111.301 26.9479 109.641 27.023C108.552 27.0723 107.575 27.1835 107.471 27.2701C107.349 27.3714 107.239 27.3395 107.161 27.1804C107.064 26.9835 107.039 26.9814 107.037 27.1702C107.036 27.3006 106.953 27.5121 106.854 27.6403C106.706 27.8315 106.619 27.8171 106.374 27.5604C106.132 27.3086 105.957 27.2765 105.477 27.3965C105.148 27.4782 104.833 27.5487 104.775 27.553C104.718 27.5573 104.671 27.6819 104.671 27.8299C104.671 27.9778 104.606 28.0988 104.528 28.0988C104.449 28.0988 104.348 27.9778 104.304 27.8299C104.209 27.5105 103.954 27.4813 103.734 27.7646C103.55 28.0018 103.849 28.4954 104.146 28.4451C104.558 28.3751 104.689 28.4802 104.665 28.8609C104.607 29.7976 104.665 30.0629 104.904 29.9448C105.08 29.8574 105.115 29.9023 105.047 30.1296C104.994 30.3088 105.026 30.4309 105.127 30.4323C105.22 30.4336 105.438 30.4834 105.61 30.5428C105.84 30.6224 105.922 30.5741 105.922 30.3611C105.922 30.0307 106.105 29.9926 106.472 30.2462C106.673 30.3846 106.741 30.3473 106.798 30.0669C106.837 29.872 106.942 29.7126 107.031 29.7126C107.129 29.7126 107.158 29.8531 107.105 30.0701C107.035 30.3516 107.066 30.4033 107.248 30.3129C107.376 30.2498 107.528 30.2985 107.587 30.421C107.646 30.5435 107.921 30.6575 108.199 30.6744C108.598 30.6986 108.704 30.6385 108.704 30.388C108.704 29.9555 109.071 29.9858 109.16 30.4258C109.225 30.747 109.327 30.7733 110.243 30.7063C110.931 30.6559 111.374 30.7113 111.625 30.879C111.94 31.0887 112.051 31.0886 112.366 30.8781C112.569 30.7418 112.736 30.6923 112.736 30.768C112.736 30.8436 112.924 30.87 113.153 30.8266C113.383 30.7832 113.57 30.6444 113.57 30.5182C113.57 30.175 113.952 30.0527 114.046 30.3661C114.16 30.75 114.147 30.8259 113.989 30.7C113.909 30.636 113.888 30.7124 113.939 30.8838C114.009 31.1189 114.05 31.1296 114.146 30.9379C114.244 30.7421 114.291 30.7475 114.405 30.9677C114.52 31.1908 114.565 31.1951 114.666 30.9933C114.748 30.8295 114.817 30.813 114.88 30.9428C114.93 31.0488 115.173 31.1285 115.418 31.1198C115.664 31.1112 115.928 31.1233 116.004 31.1468C116.293 31.2354 116.38 31.1386 116.227 30.9005C116.1 30.7027 116.135 30.6539 116.407 30.6539C116.621 30.6539 116.77 30.7775 116.814 30.9901C116.907 31.4527 117.154 31.4127 117.227 30.9229L117.287 30.5194L117.306 30.9229C117.332 31.4712 118.02 31.5144 118.02 30.9677C118.02 30.7705 118.077 30.6091 118.146 30.6091C118.216 30.6091 118.243 30.7559 118.206 30.9354C118.126 31.3308 118.469 31.7373 118.813 31.6539C118.951 31.6206 119.125 31.4129 119.2 31.1926C119.275 30.9722 119.4 30.8006 119.478 30.8114C119.835 30.8607 119.938 30.7504 120.018 30.2335C120.087 29.7934 120.04 29.6113 119.792 29.3527C119.512 29.0599 119.497 28.969 119.645 28.4617C119.792 27.9608 119.776 27.8528 119.508 27.5073C119.342 27.293 119.224 26.9552 119.245 26.7565C119.274 26.487 119.252 26.4573 119.156 26.6387C119.067 26.8085 119 26.8222 118.933 26.6836C118.881 26.5744 118.724 26.4851 118.583 26.4851C118.29 26.4851 118.159 26.1455 118.159 25.384C118.159 25.0904 118.108 24.8911 118.045 24.9413C117.917 25.0431 117.464 24.4275 117.464 24.1521C117.464 24.0546 117.379 23.9748 117.275 23.9748C117.148 23.9748 117.107 23.8274 117.151 23.5317C117.202 23.1923 117.109 22.9719 116.755 22.5904C115.888 21.6535 115.503 21.1005 115.592 20.916C115.712 20.6664 115.283 19.8508 115.032 19.8508C114.91 19.8508 114.862 19.7445 114.911 19.5818C114.964 19.4031 114.904 19.3109 114.733 19.3071C114.323 19.2982 113.988 18.8668 113.988 18.3502C113.988 17.9191 113.962 17.8962 113.708 18.1009C113.461 18.2991 113.385 18.2612 113.075 17.7886C112.881 17.4929 112.63 16.9885 112.519 16.6681C112.29 16.0144 112.119 15.9371 111.919 16.3977C111.723 16.8494 111.557 16.5288 111.573 15.7298C111.584 15.1998 111.541 15.0617 111.389 15.137C111.265 15.1983 111.161 15.0915 111.113 14.8535C111.07 14.6434 110.954 14.4716 110.856 14.4716C110.74 14.4716 110.703 14.6142 110.753 14.8751L110.83 15.2785L110.536 14.8537C110.135 14.2747 110.022 13.7487 110.253 13.5371C110.391 13.4108 110.361 13.3874 110.139 13.4496C109.922 13.5105 109.858 13.4641 109.911 13.2859C109.952 13.1491 109.911 13.0372 109.82 13.0372C109.729 13.0372 109.412 12.7103 109.114 12.3108C108.816 11.9113 108.493 11.5983 108.395 11.6149C107.747 11.7252 107.591 11.6043 107.591 10.992C107.591 10.4785 107.549 10.3955 107.325 10.471C107.143 10.5321 106.982 10.4107 106.819 10.0899C106.688 9.83102 106.615 9.57461 106.657 9.5201C106.754 9.39531 106.324 8.83408 105.898 8.52962C105.577 8.29993 105.494 8.26138 105.227 8.21835C105.151 8.20597 105.088 8.03456 105.088 7.83732C105.088 7.63327 104.995 7.47871 104.873 7.47871C104.755 7.47871 104.551 7.23719 104.421 6.94187C104.132 6.28687 103.896 6.25352 103.779 6.85114C103.731 7.09769 103.595 7.29941 103.477 7.29941C103.325 7.29941 103.288 7.19397 103.35 6.94187C103.415 6.67542 103.386 6.61016 103.234 6.68529C102.901 6.84989 102.852 7.46706 103.153 7.70894C103.299 7.82692 103.419 8.03868 103.419 8.17926C103.419 8.32001 103.46 8.38277 103.509 8.31894C103.609 8.19002 104.383 9.43099 104.389 9.73043C104.393 9.92336 105.327 10.5269 105.621 10.5269C105.71 10.5269 105.783 10.396 105.783 10.2361C105.783 9.99777 105.821 9.9854 105.992 10.1683C106.107 10.2911 106.201 10.5228 106.203 10.6833C106.204 10.9328 106.223 10.937 106.334 10.7114C106.405 10.5663 106.512 10.5102 106.571 10.5866C106.705 10.7593 106.331 11.0788 106.157 10.9404C106.04 10.847 105.79 11.1873 105.785 11.4473C105.784 11.5099 105.908 11.6029 106.061 11.6544C106.213 11.7058 106.382 11.8968 106.436 12.0788C106.589 12.593 107.074 13.0465 107.398 12.9785C107.625 12.931 107.677 12.9918 107.625 13.2461C107.589 13.427 107.502 13.5751 107.433 13.5751C107.363 13.5751 107.412 13.7817 107.54 14.0341C107.684 14.3181 107.809 14.4184 107.867 14.297C108.039 13.9376 108.409 14.3124 108.452 14.8903C108.491 15.4051 108.543 15.463 109.017 15.5136C109.499 15.5648 109.527 15.5978 109.383 15.9441C109.249 16.2672 109.261 16.3025 109.469 16.1996C109.653 16.1083 109.695 16.156 109.645 16.4018C109.565 16.7983 109.896 17.2288 110.175 17.0906C110.309 17.0242 110.428 17.1492 110.517 17.4486C110.687 18.0258 110.56 18.3335 110.277 18.0307C110.162 17.9076 109.871 17.7954 109.629 17.7812C108.917 17.7395 108.843 17.7104 108.843 17.4737C108.843 17.2575 107.953 16.8026 107.531 16.8026C107.418 16.8026 107.276 16.6855 107.214 16.5426C107.148 16.3918 106.823 16.2516 106.438 16.2091C106.074 16.1687 105.738 16.0868 105.692 16.0271C105.646 15.9676 105.5 15.993 105.368 16.0839C105.166 16.2233 105.139 16.1804 105.194 15.8087C105.234 15.543 105.195 15.3681 105.096 15.3681C105.006 15.3681 104.971 15.4488 105.019 15.5475C105.246 16.0221 104.7 15.659 104.064 14.9134C103.878 14.6945 102.885 14.3029 102.585 14.33C101.899 14.3918 101.473 14.2721 101.473 14.0178C101.473 13.8666 101.363 13.6931 101.229 13.6319C101.095 13.5706 100.892 13.4193 100.777 13.2954C100.663 13.1717 100.381 13.0442 100.152 13.0123C99.9221 12.9803 99.525 12.8086 99.2691 12.6305C99.0132 12.4525 98.6846 12.3555 98.539 12.415C98.3916 12.4754 98.2743 12.4387 98.2743 12.332C98.2743 12.2267 98.1178 12.1407 97.9266 12.1407C97.7354 12.1407 97.579 12.0551 97.579 11.9508C97.579 11.8464 97.516 11.8111 97.439 11.8724C97.3619 11.9337 97.1176 11.8175 96.8961 11.614C96.6744 11.4105 96.4246 11.2441 96.3408 11.2441C96.257 11.2441 96.1884 11.1634 96.1884 11.0648C96.1884 10.9662 96.0445 10.8855 95.8686 10.8855C95.6927 10.8855 95.4893 10.8136 95.4167 10.7256C95.3439 10.6377 94.7553 10.3594 94.1083 10.1071C93.1758 9.74352 92.8893 9.69313 92.7258 9.86365C92.5614 10.0351 92.5421 10.0304 92.6305 9.8407C92.7621 9.55901 92.3061 8.93826 92.0487 9.04889C91.955 9.08905 91.6673 8.95404 91.4096 8.74873C91.1518 8.54325 90.7676 8.37524 90.5555 8.37524C90.3436 8.37524 90.1007 8.25564 90.0157 8.10969C89.9309 7.96355 89.7362 7.81437 89.5833 7.77797C89.4303 7.74157 89.2113 7.66644 89.0966 7.61104C88.3929 7.27108 87.9676 7.15919 87.709 7.24633C87.5238 7.30891 87.3517 7.2336 87.2433 7.04264C87.1485 6.87517 86.8714 6.73244 86.624 6.7233C86.3779 6.71433 86.1764 6.62988 86.1764 6.53575C86.1764 6.44161 86.0893 6.40754 85.9831 6.46026C85.8767 6.51279 85.653 6.39158 85.4858 6.19076C85.2681 5.92934 85.07 5.85439 84.7878 5.92718C84.5249 5.99496 84.3696 5.94762 84.3212 5.78482C84.2812 5.65052 83.7906 5.40702 83.2309 5.24367C82.6712 5.0805 82.0707 4.82733 81.8965 4.68119C81.7223 4.53506 81.5265 4.45796 81.4614 4.50978C81.3964 4.56159 81.1503 4.48001 80.9145 4.32832C80.4947 4.05828 79.7004 4.06277 79.1888 4.338C78.9933 4.44307 78.9454 4.37691 78.9454 4.00145C78.9454 3.70541 78.8689 3.534 78.7368 3.534C78.6221 3.534 78.5283 3.4664 78.5283 3.38374C78.5283 3.30108 78.302 3.22254 78.0254 3.2091C77.7488 3.19565 77.4404 3.09685 77.3399 2.98927C77.1307 2.76549 76.4223 2.59551 75.8274 2.62671C75.6038 2.63837 75.3763 2.55481 75.3218 2.44113C75.2673 2.32727 74.8869 2.19853 74.4767 2.15496C73.39 2.03949 73.2092 2.04361 72.8535 2.19225C72.6008 2.29769 72.5171 2.25089 72.4607 1.97278C72.3873 1.61059 72.3768 1.6079 70.6021 1.47378C69.8838 1.41963 69.5387 1.32621 69.4009 1.14852C69.3478 1.07984 69.0143 1.02372 68.6599 1.02372C68.3055 1.02372 67.9562 0.947696 67.8835 0.854637C67.775 0.715855 66.893 0.641623 65.7351 0.674077C65.6204 0.677305 65.2449 0.59303 64.9007 0.486881C63.9713 0.199993 63.1848 0.141899 62.9905 0.34559C62.894 0.446718 62.7107 0.462854 62.5733 0.382167C62.2453 0.189952 59.6166 0.128451 59.6166 0.312956C59.6166 0.392926 59.4424 0.346307 59.2295 0.209317C58.99 0.055294 58.4991 -0.0223455 57.9429 0.00562613C57.0128 0.0526041 56.6342 0.210931 56.7709 0.496205C56.8143 0.586755 56.7529 0.612934 56.6341 0.554301C56.5154 0.495489 56.4183 0.365493 56.4183 0.26544C56.4183 0.160368 56.33 0.177759 56.2097 0.306501C56.0402 0.487778 56.0011 0.479889 56.0011 0.263647C56.0011 0.0450738 55.7988 0.00885359 54.867 0.0604935C54.2432 0.0950994 53.7031 0.161802 53.6666 0.2086C53.6303 0.255578 53.4994 0.229937 53.3756 0.15194C53.2517 0.0739418 52.9294 0.0612115 52.659 0.123789ZM102.064 4.55962C101.968 4.60373 101.897 4.89528 101.906 5.20745C101.917 5.58919 101.944 5.65769 101.99 5.4167C102.028 5.21947 102.124 4.95535 102.203 4.82966C102.371 4.56285 102.31 4.44594 102.064 4.55962ZM63.6492 4.96844C63.6492 5.06706 63.5829 5.14774 63.502 5.14774C63.421 5.14774 63.3934 5.06706 63.4406 4.96844C63.4879 4.86982 63.5541 4.78913 63.5879 4.78913C63.6217 4.78913 63.6492 4.86982 63.6492 4.96844ZM102.724 5.45561C102.724 5.80669 102.97 6.22358 103.177 6.22358C103.243 6.22358 103.248 6.12281 103.188 5.99944C103.128 5.87626 103.077 5.66127 103.075 5.52177C103.07 5.13286 102.724 5.06777 102.724 5.45561ZM39.1376 5.79396C39.0914 5.85349 38.9714 5.85994 38.8712 5.80812C38.7602 5.75093 38.7932 5.70843 38.9552 5.69983C39.1017 5.69212 39.1838 5.73443 39.1376 5.79396ZM102.376 6.04427C102.329 6.14289 102.388 6.22358 102.507 6.22358C102.626 6.22358 102.724 6.14289 102.724 6.04427C102.724 5.94565 102.665 5.86496 102.593 5.86496C102.521 5.86496 102.424 5.94565 102.376 6.04427ZM36.8113 6.59276C36.8113 6.68564 36.7488 6.76149 36.6723 6.76149C36.5958 6.76149 36.5332 6.63562 36.5332 6.48195C36.5332 6.32829 36.5958 6.25226 36.6723 6.31323C36.7488 6.37419 36.8113 6.49988 36.8113 6.59276ZM29.7194 6.66126C29.7194 6.70483 29.6569 6.79018 29.5804 6.85114C29.5039 6.91211 29.4413 6.87643 29.4413 6.77207C29.4413 6.66771 29.5039 6.58219 29.5804 6.58219C29.6569 6.58219 29.7194 6.61769 29.7194 6.66126ZM29.3943 8.42006C29.3558 8.54343 29.3242 8.44248 29.3242 8.19593C29.3242 7.94939 29.3558 7.84862 29.3943 7.9718C29.433 8.09516 29.433 8.29688 29.3943 8.42006ZM27.7727 9.80968C27.7727 9.9083 27.6631 9.98773 27.5293 9.9863C27.3213 9.98397 27.3163 9.95815 27.4945 9.80968C27.7569 9.59093 27.7727 9.59093 27.7727 9.80968ZM90.9222 11.1134C90.6961 11.405 90.5669 11.1321 90.7859 10.8253C90.8895 10.6804 90.9965 10.6418 91.0242 10.7396C91.052 10.8371 91.0061 11.0053 90.9222 11.1134ZM25.2001 10.8855C25.2474 10.9841 25.2197 11.0648 25.1388 11.0648C25.0579 11.0648 24.9915 10.9841 24.9915 10.8855C24.9915 10.7869 25.0191 10.7062 25.0528 10.7062C25.0866 10.7062 25.1528 10.7869 25.2001 10.8855ZM107.035 12.2303C107.035 12.3782 106.972 12.4993 106.896 12.4993C106.819 12.4993 106.757 12.3782 106.757 12.2303C106.757 12.0824 106.819 11.9613 106.896 11.9613C106.972 11.9613 107.035 12.0824 107.035 12.2303ZM111.763 18.7749C111.763 18.8736 111.735 18.9543 111.701 18.9543C111.668 18.9543 111.601 18.8736 111.554 18.7749C111.507 18.6763 111.535 18.5956 111.616 18.5956C111.696 18.5956 111.763 18.6763 111.763 18.7749ZM111.067 27.8299C111.067 27.9778 111.005 28.0988 110.928 28.0988C110.852 28.0988 110.789 27.9778 110.789 27.8299C110.789 27.6819 110.852 27.5609 110.928 27.5609C111.005 27.5609 111.067 27.6819 111.067 27.8299ZM5.10645 28.1779C5.10645 28.2215 5.04387 28.3068 4.96739 28.3678C4.89091 28.4287 4.82834 28.3931 4.82834 28.2887C4.82834 28.1844 4.89091 28.0988 4.96739 28.0988C5.04387 28.0988 5.10645 28.1343 5.10645 28.1779ZM111.902 28.3678C111.902 28.5157 111.839 28.6367 111.763 28.6367C111.686 28.6367 111.624 28.7712 111.624 28.9356C111.624 29.0999 111.585 29.1843 111.537 29.1232C111.412 28.9618 111.604 28.0988 111.765 28.0988C111.84 28.0988 111.902 28.2199 111.902 28.3678ZM106.901 29.1704C106.622 29.393 106.445 29.2076 106.654 28.9113C106.764 28.7544 106.876 28.7284 106.964 28.8385C107.055 28.9512 107.033 29.0653 106.901 29.1704ZM108.133 28.8829C108.3 29.1427 108.204 29.7126 107.993 29.7126C107.925 29.7126 107.869 29.5915 107.869 29.4436C107.869 29.2957 107.768 29.1747 107.644 29.1747C107.459 29.1747 107.449 29.1261 107.591 28.9057C107.806 28.5724 107.929 28.5672 108.133 28.8829ZM117.203 29.0432C117.066 29.2189 117.05 29.1983 117.125 28.9428C117.178 28.766 117.255 28.6665 117.298 28.7217C117.341 28.7768 117.298 28.9215 117.203 29.0432ZM105.501 29.3091C105.497 29.7321 105.477 29.7574 105.354 29.487C105.276 29.3136 105.25 29.0918 105.297 28.9939C105.441 28.6939 105.505 28.7935 105.501 29.3091ZM109.955 29.7232C109.955 29.9261 109.892 30.0425 109.816 29.9815C109.739 29.9206 109.677 29.7545 109.677 29.6123C109.677 29.4701 109.739 29.354 109.816 29.354C109.892 29.354 109.955 29.5202 109.955 29.7232ZM113.153 29.9815C113.153 30.1295 113.061 30.2505 112.949 30.2505C112.825 30.2505 112.776 30.1454 112.825 29.9815C112.869 29.8336 112.961 29.7126 113.029 29.7126C113.097 29.7126 113.153 29.8336 113.153 29.9815ZM2.60065 30.8824C2.50387 31.0326 2.3961 31.1187 2.36106 31.0737C2.26469 30.9492 2.46062 30.6091 2.6286 30.6091C2.72093 30.6091 2.71037 30.712 2.60065 30.8824ZM3.85494 32.3019C3.85494 32.3455 3.79237 32.4308 3.71588 32.4918C3.6394 32.5528 3.57683 32.5171 3.57683 32.4127C3.57683 32.3084 3.6394 32.2228 3.71588 32.2228C3.79237 32.2228 3.85494 32.2583 3.85494 32.3019Z" fill="#6966FF"/>
</svg>