<svg xmlns="http://www.w3.org/2000/svg" width="24" height="19" viewBox="0 0 24 19" fill="none">
  <path d="M20.317 2.15704C18.7873 1.45516 17.147 0.938041 15.4319 0.641867C15.4007 0.636151 15.3695 0.650436 15.3534 0.679006C15.1424 1.05422 14.9087 1.54372 14.7451 1.92846C12.9004 1.65229 11.0652 1.65229 9.25832 1.92846C9.09465 1.53517 8.85248 1.05422 8.64057 0.679006C8.62449 0.651389 8.59328 0.637105 8.56205 0.641867C6.84791 0.937095 5.20756 1.45421 3.67693 2.15704C3.66368 2.16275 3.65233 2.17228 3.64479 2.18466C0.533392 6.83302 -0.31895 11.3671 0.0991801 15.845C0.101072 15.8669 0.11337 15.8879 0.130398 15.9012C2.18321 17.4087 4.17171 18.3239 6.12328 18.9306C6.15451 18.9401 6.18761 18.9287 6.20748 18.903C6.66913 18.2725 7.08064 17.6078 7.43348 16.9088C7.4543 16.8678 7.43442 16.8193 7.39186 16.8031C6.73913 16.5555 6.1176 16.2536 5.51973 15.9107C5.47244 15.8831 5.46865 15.8155 5.51216 15.7831C5.63797 15.6888 5.76382 15.5907 5.88396 15.4917C5.90569 15.4736 5.93598 15.4698 5.96153 15.4812C9.88928 17.2745 14.1415 17.2745 18.023 15.4812C18.0485 15.4688 18.0788 15.4726 18.1015 15.4907C18.2216 15.5898 18.3475 15.6888 18.4742 15.7831C18.5177 15.8155 18.5149 15.8831 18.4676 15.9107C17.8697 16.2602 17.2482 16.5555 16.5945 16.8021C16.552 16.8183 16.533 16.8678 16.5538 16.9088C16.9143 17.6068 17.3258 18.2716 17.7789 18.902C17.7978 18.9287 17.8319 18.9401 17.8631 18.9306C19.8241 18.3239 21.8126 17.4087 23.8654 15.9012C23.8834 15.8879 23.8948 15.8679 23.8967 15.846C24.3971 10.669 23.0585 6.1721 20.3482 2.1856C20.3416 2.17228 20.3303 2.16275 20.317 2.15704ZM8.02002 13.1184C6.8375 13.1184 5.86313 12.0328 5.86313 10.6995C5.86313 9.36623 6.8186 8.28059 8.02002 8.28059C9.23087 8.28059 10.1958 9.37577 10.1769 10.6995C10.1769 12.0328 9.22141 13.1184 8.02002 13.1184ZM15.9947 13.1184C14.8123 13.1184 13.8379 12.0328 13.8379 10.6995C13.8379 9.36623 14.7933 8.28059 15.9947 8.28059C17.2056 8.28059 18.1705 9.37577 18.1516 10.6995C18.1516 12.0328 17.2056 13.1184 15.9947 13.1184Z" fill="#C8C7D8"/>
</svg>